<?xml version="1.0" standalone="no"?>
<!DOCTYPE svg PUBLIC "-//W3C//DTD SVG 20010904//EN"
 "http://www.w3.org/TR/2001/REC-SVG-20010904/DTD/svg10.dtd">
<svg version="1.0" xmlns="http://www.w3.org/2000/svg"
 width="1190.000000pt" height="1190.000000pt" viewBox="0 0 1190.000000 1190.000000"
 preserveAspectRatio="xMidYMid meet">
<metadata>
Created by potrace 1.11, written by Peter Selinger 2001-2013
</metadata>
<g transform="translate(0.000000,1190.000000) scale(0.100000,-0.100000)"
fill="#000000" stroke="none">
<path d="M4555 10133 c-133 -13 -414 -58 -496 -78 -173 -44 -274 -94 -514
-256 -238 -161 -443 -337 -648 -558 -111 -120 -111 -119 11 -120 149 -2 534
49 634 84 30 10 62 36 117 97 155 170 351 348 531 483 l105 78 3 -35 c9 -109
-135 -378 -508 -948 -290 -442 -419 -679 -501 -921 -29 -83 -33 -107 -33 -204
-1 -102 1 -113 26 -156 36 -60 77 -94 163 -135 207 -98 465 -104 974 -23 254
40 528 109 711 178 57 22 106 39 108 37 1 -2 -241 -379 -539 -837 -298 -459
-576 -886 -617 -949 -41 -63 -78 -119 -82 -123 -4 -5 -65 92 -136 215 -374
652 -535 885 -783 1141 -270 278 -575 454 -894 517 -282 55 -649 40 -1114 -45
-426 -79 -679 -243 -843 -548 -94 -173 -130 -324 -138 -560 -10 -344 66 -660
245 -1025 237 -481 583 -859 958 -1046 257 -128 487 -174 817 -162 640 22
1179 156 1542 384 54 34 101 62 105 62 3 0 37 -51 76 -113 38 -61 114 -179
168 -261 54 -81 97 -149 95 -151 -2 -2 -144 -73 -317 -160 -226 -112 -310
-159 -300 -166 21 -13 146 -11 346 6 207 18 270 28 350 56 32 11 65 23 75 25
12 4 40 -26 105 -113 688 -910 1499 -1509 2488 -1838 684 -228 1302 -289 2100
-210 688 69 1202 235 1554 503 41 32 118 100 170 152 301 300 441 677 409
1101 -37 505 -316 987 -762 1320 -356 266 -847 430 -1441 479 -157 14 -629 13
-820 0 -524 -37 -1205 -143 -1714 -266 -473 -115 -814 -238 -1558 -560 l-32
-14 -87 138 c-48 75 -147 237 -221 360 l-135 222 19 24 c10 13 52 66 94 117
192 236 424 576 871 1274 151 237 405 630 565 875 1008 1549 1204 1852 1199
1857 -11 11 -247 4 -380 -12 -133 -16 -367 -58 -387 -71 -5 -3 -124 -148 -263
-322 -298 -374 -381 -470 -564 -655 -284 -288 -512 -458 -814 -609 -114 -56
-297 -128 -328 -128 -28 0 -141 52 -183 84 -19 14 -47 50 -63 78 -26 48 -29
62 -28 143 0 109 29 226 91 375 74 178 155 316 437 745 317 484 476 765 512
904 29 114 2 187 -88 237 -53 29 -54 29 -228 30 -96 1 -193 0 -215 -3z m-3074
-2632 c150 -33 371 -137 528 -249 109 -77 297 -255 410 -386 213 -248 421
-574 811 -1266 100 -179 205 -362 231 -408 27 -45 49 -87 49 -93 0 -5 -39 -51
-87 -102 -228 -241 -448 -409 -702 -537 -170 -85 -202 -94 -275 -81 -519 99
-987 511 -1307 1151 -172 343 -252 654 -253 980 0 371 94 636 301 844 76 76
209 169 233 161 8 -2 36 -9 61 -14z m6623 -2301 c621 -43 1157 -241 1557 -578
303 -255 512 -606 602 -1012 17 -79 21 -130 21 -300 1 -135 -4 -225 -12 -265
-79 -359 -264 -647 -557 -866 -166 -125 -339 -211 -585 -293 -93 -30 -98 -31
-275 -30 -339 3 -754 74 -1152 198 -971 303 -1763 867 -2477 1765 -97 121
-304 403 -312 424 -7 20 580 296 1014 476 554 231 877 329 1372 420 382 70
519 80 804 61z"/>
<path d="M10414 8430 c-265 -22 -566 -94 -914 -220 -430 -155 -611 -251 -771
-410 -73 -72 -94 -101 -133 -181 -51 -105 -66 -167 -66 -273 0 -137 40 -238
129 -326 72 -72 151 -112 419 -214 271 -104 478 -189 557 -228 182 -91 337
-231 399 -360 75 -158 71 -291 -15 -433 l-34 -56 -45 7 c-196 29 -397 151
-523 317 -74 98 -103 151 -142 259 l-33 93 -59 -2 c-69 -2 -238 -51 -431 -127
-193 -75 -234 -98 -278 -153 -79 -100 -81 -101 -127 -92 -161 30 -293 136
-329 264 -17 64 -12 172 12 250 27 84 173 377 266 530 61 101 194 360 194 378
0 38 -353 -64 -606 -175 -83 -37 -121 -59 -138 -82 -13 -17 -81 -137 -151
-266 -149 -274 -207 -354 -394 -540 -139 -139 -267 -241 -411 -330 l-81 -51
-61 16 c-105 27 -181 108 -229 245 -20 56 -23 85 -23 205 0 122 4 153 27 239
79 284 246 563 475 795 l103 104 57 -7 c149 -17 255 -83 268 -166 4 -22 12
-40 18 -40 21 0 272 69 376 104 106 35 322 127 347 148 20 16 15 72 -10 109
-29 44 -97 84 -177 106 -101 28 -350 25 -495 -6 -255 -53 -700 -225 -918 -354
-313 -186 -587 -515 -745 -899 -63 -152 -86 -254 -86 -388 0 -169 41 -287 129
-375 111 -112 266 -131 520 -64 221 57 641 210 855 312 100 47 110 47 110 -5
0 -94 89 -212 202 -269 168 -85 385 -93 658 -24 75 18 335 105 451 150 12 4
26 -11 55 -61 51 -88 168 -212 254 -269 155 -103 298 -145 495 -145 203 0 322
25 665 139 247 82 400 149 513 224 322 214 365 526 111 796 -142 151 -299 233
-787 413 -355 130 -483 212 -556 355 -99 197 -48 452 127 630 103 105 133 120
258 134 139 15 330 7 461 -20 446 -91 800 -396 903 -777 27 -99 38 -297 21
-386 -26 -136 -79 -264 -145 -351 -20 -26 -36 -49 -36 -52 0 -28 269 46 514
141 184 73 188 75 241 144 264 344 218 843 -110 1189 -216 228 -510 356 -875
381 -138 10 -128 10 -256 0z"/>
</g>
</svg>
